{
    "asset" : {
        "generator" : "Khronos glTF Blender I/O v1.7.33",
        "version" : "2.0"
    },
    "scene" : 0,
    "scenes" : [
        {
            "name" : "Scene",
            "nodes" : [
                0
            ]
        }
    ],
    "nodes" : [
        {
            "mesh" : 0,
            "name" : "Cube.015",
            "rotation" : [
                -0.17649541795253754,
                0.049517665058374405,
                0.008890649303793907,
                0.9830149412155151
            ],
            "scale" : [
                0.5424171686172485,
                1,
                0.3016868531703949
            ],
            "translation" : [
                0.2623939514160156,
                0.7701609134674072,
                -5.330426216125488
            ]
        }
    ],
    "materials" : [
        {
            "doubleSided" : true,
            "name" : "barrel",
            "pbrMetallicRoughness" : {
                "baseColorTexture" : {
                    "index" : 0
                },
                "metallicFactor" : 0,
                "roughnessFactor" : 0.5
            }
        }
    ],
    "meshes" : [
        {
            "name" : "Cube.015",
            "primitives" : [
                {
                    "attributes" : {
                        "POSITION" : 0,
                        "NORMAL" : 1,
                        "TEXCOORD_0" : 2
                    },
                    "indices" : 3,
                    "material" : 0
                }
            ]
        }
    ],
    "textures" : [
        {
            "sampler" : 0,
            "source" : 0
        }
    ],
    "images" : [
        {
            "bufferView" : 4,
            "mimeType" : "image/png",
            "name" : "barrel"
        }
    ],
    "accessors" : [
        {
            "bufferView" : 0,
            "componentType" : 5126,
            "count" : 784,
            "max" : [
                7.554924011230469,
                14.645264625549316,
                76.60429382324219
            ],
            "min" : [
                -9.793397903442383,
                -8.732645034790039,
                -56.84189987182617
            ],
            "type" : "VEC3"
        },
        {
            "bufferView" : 1,
            "componentType" : 5126,
            "count" : 784,
            "type" : "VEC3"
        },
        {
            "bufferView" : 2,
            "componentType" : 5126,
            "count" : 784,
            "type" : "VEC2"
        },
        {
            "bufferView" : 3,
            "componentType" : 5123,
            "count" : 1230,
            "type" : "SCALAR"
        }
    ],
    "bufferViews" : [
        {
            "buffer" : 0,
            "byteLength" : 9408,
            "byteOffset" : 0
        },
        {
            "buffer" : 0,
            "byteLength" : 9408,
            "byteOffset" : 9408
        },
        {
            "buffer" : 0,
            "byteLength" : 6272,
            "byteOffset" : 18816
        },
        {
            "buffer" : 0,
            "byteLength" : 2460,
            "byteOffset" : 25088
        },
        {
            "buffer" : 0,
            "byteLength" : 4979,
            "byteOffset" : 27548
        }
    ],
    "samplers" : [
        {
            "magFilter" : 9728,
            "minFilter" : 9984
        }
    ],
    "buffers" : [
        {
            "byteLength" : 32528,
            "uri" : "data:application/octet-stream;base64,"
        }
    ]
}
